<?xml version="1.0" standalone="no"?>
<!DOCTYPE svg PUBLIC "-//W3C//DTD SVG 20010904//EN"
 "http://www.w3.org/TR/2001/REC-SVG-20010904/DTD/svg10.dtd">
<svg version="1.0" xmlns="http://www.w3.org/2000/svg"
 width="96.000000pt" height="96.000000pt" viewBox="0 0 96.000000 96.000000"
 preserveAspectRatio="xMidYMid meet">

<g transform="translate(0.000000,96.000000) scale(0.100000,-0.100000)"
fill="#000000" stroke="none">
<path d="M349 837 c-21 -16 -39 -51 -39 -76 0 -18 -6 -21 -37 -21 -47 0 -101
-31 -108 -62 -9 -39 -55 -443 -55 -482 0 -26 7 -44 25 -61 l24 -25 321 0 321
0 24 25 c32 31 32 47 0 300 -32 256 -37 273 -80 291 -19 8 -48 14 -65 14 -24
0 -30 4 -30 20 0 29 -26 76 -45 84 -31 11 -239 6 -256 -7z m232 -37 c11 -6 19
-21 19 -35 0 -24 -2 -25 -69 -25 -48 0 -72 -4 -81 -15 -21 -25 -1 -35 75 -35
69 0 74 -1 77 -22 2 -15 11 -24 26 -26 18 -3 22 1 22 22 0 23 4 26 39 26 21 0
43 -6 49 -13 6 -7 25 -121 41 -252 28 -222 29 -240 14 -257 -15 -17 -39 -18
-313 -18 -276 0 -298 1 -314 19 -15 17 -15 32 10 247 16 132 33 239 41 252 10
17 23 22 53 22 32 0 39 -4 42 -22 2 -15 10 -23 23 -23 18 0 20 8 23 70 2 51 7
73 19 83 21 15 176 16 204 2z"/>
<path d="M353 515 c-28 -20 -37 -75 -20 -117 20 -48 112 -128 147 -128 41 0
136 89 150 139 12 45 -2 96 -30 111 -28 15 -73 12 -98 -6 -20 -14 -24 -14 -44
0 -28 20 -77 20 -105 1z"/>
</g>
</svg>
