<?xml version="1.0" standalone="no"?>
<!DOCTYPE svg PUBLIC "-//W3C//DTD SVG 20010904//EN"
 "http://www.w3.org/TR/2001/REC-SVG-20010904/DTD/svg10.dtd">
<svg version="1.0" xmlns="http://www.w3.org/2000/svg"
 width="96.000000pt" height="96.000000pt" viewBox="0 0 96.000000 96.000000"
 preserveAspectRatio="xMidYMid meet">

<g transform="translate(0.000000,96.000000) scale(0.100000,-0.100000)"
fill="#000000" stroke="none">
<path d="M162 824 c-12 -8 -22 -25 -22 -37 0 -12 21 -76 46 -142 44 -115 47
-128 60 -295 8 -96 19 -185 24 -198 7 -17 18 -22 44 -22 18 0 39 6 45 14 6 7
18 96 26 197 14 178 16 188 60 302 25 66 45 130 45 142 0 45 -32 55 -175 55
-102 0 -135 -3 -153 -16z m280 -39 c3 -3 -11 -50 -31 -103 l-37 -97 -58 0 -59
0 -33 85 c-49 128 -55 120 89 120 68 0 126 -2 129 -5z"/>
<path d="M702 785 c-34 -24 -66 -53 -71 -64 -15 -28 -14 -244 1 -259 17 -17
55 -15 62 3 3 9 -3 19 -14 25 -17 9 -20 21 -20 95 0 46 5 94 10 107 10 20 108
98 124 98 3 0 6 -94 6 -210 l0 -210 -78 0 c-47 0 -83 -5 -90 -12 -16 -16 -16
-200 0 -216 8 -8 45 -12 99 -12 126 0 119 -22 119 350 0 260 -2 309 -16 328
-24 35 -63 28 -132 -23z"/>
</g>
</svg>
