<?xml version="1.0" standalone="no"?>
<!DOCTYPE svg PUBLIC "-//W3C//DTD SVG 20010904//EN"
 "http://www.w3.org/TR/2001/REC-SVG-20010904/DTD/svg10.dtd">
<svg version="1.0" xmlns="http://www.w3.org/2000/svg"
 width="96.000000pt" height="96.000000pt" viewBox="0 0 96.000000 96.000000"
 preserveAspectRatio="xMidYMid meet">

<g transform="translate(0.000000,96.000000) scale(0.100000,-0.100000)"
fill="#000000" stroke="none">
<path d="M245 825 c-19 -18 -25 -35 -25 -70 0 -45 0 -45 -36 -45 -31 0 -35 -3
-32 -22 2 -18 11 -24 36 -26 25 -3 32 -8 33 -25 0 -12 6 -124 12 -249 12 -217
14 -228 37 -253 l23 -25 189 0 c184 0 189 1 212 23 25 25 28 47 42 313 5 90 3
123 -6 129 -26 16 -34 -19 -43 -202 -7 -145 -13 -192 -25 -205 -13 -16 -35
-18 -177 -18 -113 0 -166 4 -178 13 -13 10 -18 45 -27 197 -5 102 -10 211 -10
242 l0 58 268 2 267 3 3 23 c3 19 -1 22 -32 22 l-36 0 0 50 c0 37 -5 55 -20
70 -19 19 -33 20 -235 20 -216 0 -216 0 -240 -25z m443 -27 c7 -7 12 -29 12
-50 l0 -38 -220 0 -220 0 0 32 c0 65 11 68 225 68 135 0 195 -4 203 -12z"/>
<path d="M550 463 c-14 -9 -44 -34 -67 -55 -47 -42 -60 -45 -89 -23 -35 26
-44 19 -44 -37 0 -29 3 -70 6 -90 l7 -38 122 0 123 0 7 115 c9 143 -4 170 -65
128z"/>
</g>
</svg>
