<?xml version="1.0" standalone="no"?>
<!DOCTYPE svg PUBLIC "-//W3C//DTD SVG 20010904//EN"
 "http://www.w3.org/TR/2001/REC-SVG-20010904/DTD/svg10.dtd">
<svg version="1.0" xmlns="http://www.w3.org/2000/svg"
 width="96.000000pt" height="96.000000pt" viewBox="0 0 96.000000 96.000000"
 preserveAspectRatio="xMidYMid meet">

<g transform="translate(0.000000,96.000000) scale(0.100000,-0.100000)"
fill="#000000" stroke="none">
<path d="M244 781 c-28 -16 -63 -45 -78 -65 -50 -67 -56 -93 -56 -266 0 -153
1 -160 20 -160 19 0 20 7 20 143 0 78 5 158 10 178 14 52 82 124 133 144 36
13 74 16 204 13 161 -3 161 -3 203 -33 24 -16 57 -50 74 -73 l31 -44 5 -166
c4 -140 7 -167 20 -167 13 0 15 25 18 155 2 95 -1 170 -8 194 -14 48 -92 133
-145 157 -34 16 -67 19 -220 19 l-180 0 -51 -29z"/>
<path d="M220 430 c-18 -18 -20 -33 -20 -128 0 -123 11 -152 61 -152 57 0 69
27 69 150 0 97 -2 112 -20 130 -11 11 -31 20 -45 20 -14 0 -34 -9 -45 -20z"/>
<path d="M650 430 c-18 -18 -20 -33 -20 -128 0 -127 11 -152 65 -152 54 0 65
25 65 152 0 95 -2 110 -20 128 -11 11 -31 20 -45 20 -14 0 -34 -9 -45 -20z"/>
</g>
</svg>
