<?xml version="1.0" standalone="no"?>
<!DOCTYPE svg PUBLIC "-//W3C//DTD SVG 20010904//EN"
 "http://www.w3.org/TR/2001/REC-SVG-20010904/DTD/svg10.dtd">
<svg version="1.0" xmlns="http://www.w3.org/2000/svg"
 width="96.000000pt" height="96.000000pt" viewBox="0 0 96.000000 96.000000"
 preserveAspectRatio="xMidYMid meet">

<g transform="translate(0.000000,96.000000) scale(0.100000,-0.100000)"
fill="#000000" stroke="none">
<path d="M286 802 l-58 -17 -54 -135 c-61 -152 -62 -148 26 -178 l55 -19 3
-156 c2 -149 3 -157 22 -157 20 0 20 6 18 172 l-3 172 -50 19 c-27 10 -54 22
-59 27 -6 6 64 201 78 217 2 2 16 5 32 9 28 5 30 3 48 -45 22 -63 48 -97 80
-105 23 -6 24 -10 30 -113 7 -112 13 -136 37 -140 35 -7 42 13 47 136 4 108 7
121 23 121 29 0 67 42 86 95 15 40 23 51 44 53 14 2 31 -3 37 -11 19 -23 93
-211 85 -215 -4 -1 -33 -13 -63 -25 l-55 -22 -5 -150 -5 -150 -148 -3 c-134
-2 -148 -4 -145 -20 3 -15 21 -17 167 -20 125 -2 166 1 173 10 4 7 8 78 8 158
l0 145 65 23 c38 14 65 30 65 38 0 13 -97 264 -105 273 -2 2 -35 10 -72 18
l-68 14 -24 -28 c-12 -15 -32 -38 -42 -50 -15 -18 -29 -23 -67 -23 -46 0 -49
2 -85 50 -21 28 -43 50 -50 49 -6 0 -38 -8 -71 -17z"/>
</g>
</svg>
