<?xml version="1.0" standalone="no"?>
<!DOCTYPE svg PUBLIC "-//W3C//DTD SVG 20010904//EN"
 "http://www.w3.org/TR/2001/REC-SVG-20010904/DTD/svg10.dtd">
<svg version="1.0" xmlns="http://www.w3.org/2000/svg"
 width="96.000000pt" height="96.000000pt" viewBox="0 0 96.000000 96.000000"
 preserveAspectRatio="xMidYMid meet">

<g transform="translate(0.000000,96.000000) scale(0.100000,-0.100000)"
fill="#000000" stroke="none">
<path d="M134 809 c18 -109 71 -169 153 -169 74 0 93 49 50 125 -27 48 -71 72
-151 81 l-59 7 7 -44z"/>
<path d="M590 829 c-24 -11 -53 -28 -63 -37 -44 -39 -78 -153 -58 -191 8 -14
26 -19 80 -23 159 -12 268 -140 221 -262 -16 -44 -88 -113 -143 -137 -40 -18
-71 -23 -133 -23 -70 -1 -88 3 -139 29 -32 17 -72 47 -89 68 -28 35 -31 46
-31 106 0 59 4 72 29 105 16 21 48 52 72 69 78 55 45 80 -37 29 -128 -82 -153
-240 -53 -351 65 -72 125 -95 249 -96 87 0 107 3 155 26 115 54 170 129 170
234 0 133 -96 225 -263 250 -42 7 -47 10 -47 34 0 30 31 86 63 112 12 10 49
24 82 32 41 9 61 19 63 30 5 25 -70 22 -128 -4z"/>
</g>
</svg>
