<?xml version="1.0" standalone="no"?>
<!DOCTYPE svg PUBLIC "-//W3C//DTD SVG 20010904//EN"
 "http://www.w3.org/TR/2001/REC-SVG-20010904/DTD/svg10.dtd">
<svg version="1.0" xmlns="http://www.w3.org/2000/svg"
 width="96.000000pt" height="96.000000pt" viewBox="0 0 96.000000 96.000000"
 preserveAspectRatio="xMidYMid meet">

<g transform="translate(0.000000,96.000000) scale(0.100000,-0.100000)"
fill="#000000" stroke="none">
<path d="M242 848 c-9 -9 -12 -78 -12 -255 l0 -243 -34 0 c-18 0 -38 -6 -44
-13 -13 -16 -47 -205 -38 -214 3 -4 43 -8 89 -10 132 -7 148 10 206 202 36
119 57 154 112 195 53 38 85 38 136 1 58 -42 69 -61 114 -199 31 -97 37 -127
28 -138 -9 -11 -46 -14 -168 -14 -159 0 -189 -6 -178 -34 6 -14 30 -16 177
-16 168 0 171 0 195 25 33 32 32 56 -10 189 -45 144 -78 196 -149 236 l-55 32
-3 131 c-3 109 -6 132 -18 132 -12 0 -15 -23 -18 -132 l-3 -133 -40 -20 c-61
-31 -114 -92 -139 -160 l-22 -60 -44 0 -44 0 -2 252 c-3 248 -7 275 -36 246z"/>
</g>
</svg>
