<?xml version="1.0" standalone="no"?>
<!DOCTYPE svg PUBLIC "-//W3C//DTD SVG 20010904//EN"
 "http://www.w3.org/TR/2001/REC-SVG-20010904/DTD/svg10.dtd">
<svg version="1.0" xmlns="http://www.w3.org/2000/svg"
 width="96.000000pt" height="96.000000pt" viewBox="0 0 96.000000 96.000000"
 preserveAspectRatio="xMidYMid meet">

<g transform="translate(0.000000,96.000000) scale(0.100000,-0.100000)"
fill="#000000" stroke="none">
<path d="M288 845 c-15 -9 -30 -26 -33 -38 -3 -12 -4 -125 -3 -252 3 -197 5
-230 18 -230 13 0 16 34 20 230 3 127 9 236 13 243 6 9 51 12 167 12 87 0 165
-3 174 -6 14 -5 16 -40 16 -290 l0 -284 -205 0 -205 0 0 -34 c0 -19 9 -44 19
-57 19 -23 24 -24 199 -27 179 -3 180 -3 208 22 l29 24 0 326 c0 409 23 370
-218 373 -139 2 -177 0 -199 -12z"/>
<path d="M424 735 c-10 -24 5 -35 50 -35 45 0 68 14 59 36 -7 20 -102 19 -109
-1z"/>
</g>
</svg>
